<?xml version="1.0" encoding="UTF-8" standalone="no"?>
<!-- Created with Inkscape (http://www.inkscape.org/) -->

<svg
   version="1.1"
   id="svg2"
   width="1119.4399"
   height="560.07068"
   viewBox="0 0 1119.4399 560.07068"
   sodipodi:docname="fonts.svg"
   inkscape:version="1.2.2 (b0a84865, 2022-12-01)"
   xmlns:inkscape="http://www.inkscape.org/namespaces/inkscape"
   xmlns:sodipodi="http://sodipodi.sourceforge.net/DTD/sodipodi-0.dtd"
   xmlns="http://www.w3.org/2000/svg"
   xmlns:svg="http://www.w3.org/2000/svg">
  <defs
     id="defs6">
    <clipPath
       clipPathUnits="userSpaceOnUse"
       id="clipPath18">
      <path
         d="M 0,595.276 H 841.89 V 0 H 0 Z"
         id="path16" />
    </clipPath>
  </defs>
  <sodipodi:namedview
     id="namedview4"
     pagecolor="#ffffff"
     bordercolor="#000000"
     borderopacity="0.25"
     inkscape:showpageshadow="2"
     inkscape:pageopacity="0.0"
     inkscape:pagecheckerboard="0"
     inkscape:deskcolor="#d1d1d1"
     showgrid="false"
     inkscape:zoom="0.78131736"
     inkscape:cx="307.17352"
     inkscape:cy="323.17214"
     inkscape:window-width="1419"
     inkscape:window-height="1027"
     inkscape:window-x="2118"
     inkscape:window-y="25"
     inkscape:window-maximized="0"
     inkscape:current-layer="g10">
    <inkscape:page
       x="0"
       y="0"
       id="page8"
       width="1119.4399"
       height="560.07068"
       inkscape:export-filename="font_example.pdf"
       inkscape:export-xdpi="96"
       inkscape:export-ydpi="96" />
  </sodipodi:namedview>
  <g
     id="g10"
     inkscape:groupmode="layer"
     inkscape:label="font_example"
     transform="matrix(1.3333333,0,0,-1.3333333,0,793.70133)">
    <g
       id="g12">
      <g
         id="g14"
         clip-path="url(#clipPath18)">
        <path
           d="M 419.803,175.473 H 0.276 V 595 h 419.527 z"
           style="fill:none;stroke:#231f20;stroke-width:0.5;stroke-linecap:butt;stroke-linejoin:miter;stroke-miterlimit:10;stroke-dasharray:none;stroke-opacity:1"
           id="path20" />
        <path
           d="M 839.33,175.473 H 419.803 V 595 H 839.33 Z"
           style="fill:none;stroke:#231f20;stroke-width:0.5;stroke-linecap:butt;stroke-linejoin:miter;stroke-miterlimit:10;stroke-dasharray:none;stroke-opacity:1"
           id="path22" />
        <path
           d="M 42.088,552.913 H 0.275 V 595 h 41.813 z"
           style="fill:none;stroke:#231f20;stroke-width:0.25;stroke-linecap:butt;stroke-linejoin:miter;stroke-miterlimit:10;stroke-dasharray:none;stroke-opacity:1"
           id="path24" />
      </g>
    </g>
    <path
       d="M 419.803,552.913 H 377.99 V 595 h 41.813 z"
       style="fill:none;stroke:#231f20;stroke-width:0.25;stroke-linecap:butt;stroke-linejoin:miter;stroke-miterlimit:10;stroke-dasharray:none;stroke-opacity:1"
       id="path26" />
    <path
       d="M 461.616,552.913 H 419.803 V 595 h 41.813 z"
       style="fill:none;stroke:#231f20;stroke-width:0.25;stroke-linecap:butt;stroke-linejoin:miter;stroke-miterlimit:10;stroke-dasharray:none;stroke-opacity:1"
       id="path28" />
    <path
       d="M 839.33,552.913 H 797.517 V 595 h 41.813 z"
       style="fill:none;stroke:#231f20;stroke-width:0.25;stroke-linecap:butt;stroke-linejoin:miter;stroke-miterlimit:10;stroke-dasharray:none;stroke-opacity:1"
       id="path30" />
    <text
       xml:space="preserve"
       transform="matrix(1,0,0,-1,42.0884,534.625)"
       style="font-variant:normal;font-weight:normal;font-stretch:normal;font-size:24px;font-family:Dosis;-inkscape-font-specification:Dosis-Regular;writing-mode:lr-tb;fill:#231f20;fill-opacity:1;fill-rule:nonzero;stroke:none"
       id="text36"><tspan
         x="0 13.248 24.48 35.327999 40.127998 52.032001 63.023998 67.991997 72.959999 77.543999 89.447998 100.296 111.288 123.192 127.992 144 154.992 165.84 170.64 181.15199 186.12 191.088 202.992 213.07201 217.65601 228.168 233.136 244.12801 248.92799 267.64801 278.64001 289.63199 294.43201 306.048 317.04001"
         y="0"
         sodipodi:role="line"
         id="tspan32">Oog hellingen weg alluviale mee be-</tspan><tspan
         x="0 9.2399998 16.368 23.879999 34.872002 45.48 56.472 68.375999 73.176003 82.800003 87.384003 91.968002 96.767998 108 119.904 127.032 134.976 146.88 157.82401 164.73599 175.728 187.632 191.73599 196.536 210.17039 221.4024 226.37041 237.3624 249.2664 254.06641 265.9704 277.20239 288.05042"
         y="28.799999"
         sodipodi:role="line"
         id="tspan34">streken zij ontrukten. Holen nog </tspan></text>
    <text
       xml:space="preserve"
       transform="matrix(1,0,0,-1,461.6162,544.2974)"
       style="font-variant:normal;font-weight:normal;font-stretch:normal;font-size:12px;font-family:'Titillium Web';-inkscape-font-specification:TitilliumWeb-Regular;writing-mode:lr-tb;fill:#231f20;fill-opacity:1;fill-rule:nonzero;stroke:none"
       id="text52"><tspan
         x="0 7.9200001 14.256 20.424 23.063999 27.275999 29.903999 32.532001 38.880001 44.939999 51.383999 56.964001 59.604 69.636002 75.695999 82.139999 84.779999 88.991997 95.328003 101.388 107.556 113.568 120.012 126.18 128.82001 134.28 136.908 139.536 142.17599 151.25999 157.272 161.48399 164.12399 169.70399 173.916 176.54401 179.172 185.34 191.39999 197.84399 200.48399 206.65199 212.71201 222.744 228.756 234.76801 240.51601 244.728 247.32001 249.96001 256.59601 260.74799 263.388 269.71201 272.48401 278.496 284.94 290.53201 296.59201 303.03601"
         y="0"
         sodipodi:role="line"
         id="tspan38">Oog tijdens men toegang zij wat stijgen gemaakt. Er planken </tspan><tspan
         x="0 6.4439998 12.78 19.224001 25.572001 31.632 35.627998 41.976002 44.616001 50.627998 56.976002 59.616001 65.952003 72.2388 77.698799 80.326797 85.5588 91.966797 96.178802 98.818802 105.1548 111.4788 117.9228 120.5508 126.6108 132.9828 141.79201 144.384 147.024 153.528 159.89999 166.34399 172.51199 178.57201 182.724 185.364 191.71201 194.34 198.552 201.192 207.53999 213.912 220.284 224.28 230.62801 236.688 239.328 245.388 248.16 253.908 256.548 262.992 269.328 275.664 281.832 287.892 294.336"
         y="14.4"
         sodipodi:role="line"
         id="tspan40">honderd ad opzicht opnieuw. Sunger dit duurde elk hoogen </tspan><tspan
         x="0 6.348 12.408 18.851999 24.444 30.504 36.948002 39.540001 42.18 49.296001 55.667999 58.296001 64.739998 67.379997 73.823997 76.452003 79.080002 81.720001 85.931999 92.267998 98.328003 104.772 107.412 113.184 115.812 118.44 122.412 125.052 131.112 137.172 143.616 149.196 151.836 157.896 163.95599 170.39999 172.992 175.632 183.024 189.084 194.664 200.98801 207 213.01199 217.164 221.37601 224.01601 230.364 236.424 240.576 243.216 249.384 255.444 261.02399 265.23599 267.86401 273.09601 279.504 283.716"
         y="28.799999"
         sodipodi:role="line"
         id="tspan42">denken. Puin hij toen vijf eens een. Bespaart der gesticht </tspan><tspan
         x="0 6.1680002 12.168 21.252001 27.587999 31.584 37.931999 43.992001 50.436001 53.076 59.388 65.447998 71.795998 75.826797 81.792 87.456001 93.515999 99.959999 102.6 108.936 115.26 121.608 125.6388 131.97479 138.14281 144.2028 150.6468 153.2868 157.49879 163.5108 166.28281 170.4348 173.06281 175.6908 181.28281 187.3428 189.9828 194.19479 200.48399 204.696 207.336 213.78 219.804 224.01601 226.608 229.248 237.3 243.636 249.804 252.444 257.67599 260.30399 264.51599 270.52802 276.87601 282.936 285.70801 288.34799 294.69601 301.03201 307.47601 313.06921 319.12921 323.16119 329.22119"
         y="43.200001"
         sodipodi:role="line"
         id="tspan44">geworden bedreven opdrogen talrijke tot het. Nog citadel donkere </tspan><tspan
         x="0 6.3119998 9.0839996 11.712 14.34 20.004 26.063999 32.507999 35.147999 40.608002 46.619999 49.391998 52.032001 58.344002 64.403999 70.751999 74.783997 81.120003 87.18 93.348 95.940002 98.580002 105.24 111.252 117.264 121.416 125.628 132 134.62801 140.79601 146.856 153.3 155.94 161.604 167.94 174.276 178.42799 181.2 187.536 193.87199 200.196 202.82401 208.992 211.632 221.664 224.29201 230.64 236.98801 243.048 245.82001 248.592 251.22 253.84801 260.29199 262.93201 265.56 272.004 274.64401 277.272 283.01999 285.66 291.996 298.32001"
         y="57.599998"
         sodipodi:role="line"
         id="tspan46">blijven zal bedroeg. Vaartuigen voorloopig middellijn in ik op </tspan><tspan
         x="0 5.5799999 8.3520002 10.98 16.728001 23.040001 29.052 35.495998 41.088001 47.147999 53.591999 56.231998 62.543999 68.603996 71.375999 77.388 83.832001 90 94.152 96.779999 99.407997 105.156 107.748 110.388 120.78 126.84 129.612 132.252 137.67599 144.01199 150.34801 152.98801 158.65199 164.98801 171.32401 175.476 178.116 183.888 188.03999 190.668 193.29601 195.936 199.908 205.92 210.07201 212.71201 222.744 228.804 235.248 237.888 243.552 249.612 252.384 258.444 261.03601"
         y="72"
         sodipodi:role="line"
         id="tspan48">slikbanken belangrijk. Wel zoo voor vrij far men vele. </tspan><tspan
         x="-34.644001 -27.924 -21.204 -14.916 -75.744003 -69.024002 -62.304001 -56.015999"
         y="27.996"
         sodipodi:role="line"
         id="tspan50">12pt24pt</tspan></text>
    <text
       xml:space="preserve"
       transform="matrix(1,0,0,-1,42.0884,461.1494)"
       style="font-variant:normal;font-weight:normal;font-stretch:normal;font-size:22px;font-family:Dosis;-inkscape-font-specification:Dosis-Regular;writing-mode:lr-tb;fill:#231f20;fill-opacity:1;fill-rule:nonzero;stroke:none"
       id="text58"><tspan
         x="0 12.144 22.440001 32.383999 36.784 47.695999 57.771999 62.326 66.879997 71.082001 81.994003 91.938004 102.014 112.926 117.326 132 142.076 152.02 156.42 166.056 170.61 175.164 186.076 195.31599 199.51801 209.15401 213.70799 223.784 228.18401 245.34399 255.42 265.496 269.896 280.54401 290.62 299.09 305.62399 312.51001 322.586"
         y="0"
         sodipodi:role="line"
         id="tspan54">Oog hellingen weg alluviale mee bestre-</tspan><tspan
         x="0 9.724 19.799999 30.712 35.112 43.933998 48.136002 52.338001 56.737999 67.033997 77.945999 84.480003 91.762001 102.674 112.706 119.0398 129.1158 140.0278 143.78979 148.1898 160.68581 170.9818 175.5358 185.6118 196.5238 200.9238 211.8358 222.13181 232.07581 236.4758 251.1498 261.2258 265.77979 275.50381 285.5798 289.9798 294.53381 298.73581 309.38379 320.29581 326.8298"
         y="26.4"
         sodipodi:role="line"
         id="tspan56">ken zij ontrukten. Holen nog welke liput </tspan></text>
    <text
       xml:space="preserve"
       transform="matrix(1,0,0,-1,385.874,441.3018)"
       style="font-variant:normal;font-weight:normal;font-stretch:normal;font-size:12px;font-family:'Titillium Web';-inkscape-font-specification:TitilliumWeb-Regular;writing-mode:lr-tb;fill:#231f20;fill-opacity:1;fill-rule:nonzero;stroke:none"
       id="text62"><tspan
         x="0 6.7199998 13.44 19.7292"
         y="0"
         sodipodi:role="line"
         id="tspan60">22pt</tspan></text>
    <text
       xml:space="preserve"
       transform="matrix(1,0,0,-1,42.0884,393.6733)"
       style="font-variant:normal;font-weight:normal;font-stretch:normal;font-size:20px;font-family:Dosis;-inkscape-font-specification:Dosis-Regular;writing-mode:lr-tb;fill:#231f20;fill-opacity:1;fill-rule:nonzero;stroke:none"
       id="text68"><tspan
         x="0 11.04 20.4 29.440001 33.439999 43.360001 52.52 56.66 60.799999 64.620003 74.540001 83.580002 92.739998 102.66 106.66 120 129.16 138.2 142.2 150.96001 155.10001 159.24001 169.16 177.56 181.38 190.14 194.28 203.44 207.44 223.03999 232.2 241.36 245.36 255.03999 264.20001 271.89999 277.84 284.10001 293.26001 302.09799 311.258 321.17801"
         y="0"
         sodipodi:role="line"
         id="tspan64">Oog hellingen weg alluviale mee bestreken </tspan><tspan
         x="0 8.0200005 11.84 15.66 19.66 29.02 38.939999 44.880001 51.5 61.419998 70.540001 76.302002 85.461998 95.382004 98.802002 102.802 114.164 123.524 127.664 136.82401 146.744 150.744 160.664 170.024 179.064 183.064 196.40401 205.564 209.70399 218.54401 227.70399 231.70399 235.84399 239.664 249.34399 259.26401 265.20401 269.20401 278.24399 287.40399 291.54401 301.46399 310.58401"
         y="24"
         sodipodi:role="line"
         id="tspan66">zij ontrukten. Holen nog welke liput geluk </tspan></text>
    <text
       xml:space="preserve"
       transform="matrix(1,0,0,-1,385.874,372.3018)"
       style="font-variant:normal;font-weight:normal;font-stretch:normal;font-size:12px;font-family:'Titillium Web';-inkscape-font-specification:TitilliumWeb-Regular;writing-mode:lr-tb;fill:#231f20;fill-opacity:1;fill-rule:nonzero;stroke:none"
       id="text72"><tspan
         x="0 6.7199998 13.44 19.7292"
         y="0"
         sodipodi:role="line"
         id="tspan70">20pt</tspan></text>
    <text
       xml:space="preserve"
       transform="matrix(1,0,0,-1,42.0884,329.1973)"
       style="font-variant:normal;font-weight:normal;font-stretch:normal;font-size:18px;font-family:Dosis;-inkscape-font-specification:Dosis-Regular;writing-mode:lr-tb;fill:#231f20;fill-opacity:1;fill-rule:nonzero;stroke:none"
       id="text78"><tspan
         x="0 9.9359999 18.360001 26.496 30.096001 39.023998 47.268002 50.993999 54.720001 58.158001 67.085999 75.222 83.466003 92.393997 95.994003 108 116.244 124.38 127.98 135.864 139.59 143.31599 152.244 159.804 163.242 171.12601 174.85201 183.09599 186.696 200.73599 208.98 217.224 220.82401 229.536 237.78 244.71001 250.056 255.69 263.93399 271.89001 280.134 289.06201 292.66199 299.88 303.31799 306.75601"
         y="0"
         sodipodi:role="line"
         id="tspan74">Oog hellingen weg alluviale mee bestreken zij </tspan><tspan
         x="0 8.4239998 17.351999 22.698 28.656 37.584 45.792 50.974201 59.218201 68.146202 71.224197 74.824203 85.048203 93.472198 97.198196 105.4422 114.3702 117.9702 126.8982 135.3222 143.45821 147.0582 159.06419 167.3082 171.03419 178.9902 187.23421 190.8342 194.5602 197.9982 206.71021 215.6382 220.98421 224.5842 232.7202 240.9642 244.6902 253.61819 261.8262 265.42621 279.46619 287.71021 295.95419 299.0322 302.6322 312.3522 317.84219"
         y="21.6"
         sodipodi:role="line"
         id="tspan76">ontrukten. Holen nog welke liput geluk mee. Af-</tspan></text>
    <text
       xml:space="preserve"
       transform="matrix(1,0,0,-1,385.874,306.3018)"
       style="font-variant:normal;font-weight:normal;font-stretch:normal;font-size:12px;font-family:'Titillium Web';-inkscape-font-specification:TitilliumWeb-Regular;writing-mode:lr-tb;fill:#231f20;fill-opacity:1;fill-rule:nonzero;stroke:none"
       id="text82"><tspan
         x="0 6.7199998 13.44 19.7292"
         y="0"
         sodipodi:role="line"
         id="tspan80">18pt</tspan></text>
    <text
       xml:space="preserve"
       transform="matrix(1,0,0,-1,42.0884,255.7212)"
       style="font-variant:normal;font-weight:normal;font-stretch:normal;font-size:16px;font-family:Dosis;-inkscape-font-specification:Dosis-Regular;writing-mode:lr-tb;fill:#231f20;fill-opacity:1;fill-rule:nonzero;stroke:none"
       id="text90"><tspan
         x="0 8.8319998 16.32 23.552 26.752001 34.688 42.015999 45.327999 48.639999 51.695999 59.632 66.863998 74.192001 82.127998 85.328003 96 103.328 110.56 113.76 120.768 124.08 127.392 135.328 142.048 145.104 152.112 155.424 162.752 165.952 178.43201 185.75999 193.088 196.28799 204.032 211.36 217.52 222.272 227.28 234.608 241.67999 249.008 256.944 260.14401 266.56 269.616 272.672 275.87201 283.35999 291.29599 296.048 301.34399 309.28 316.57599"
         y="0"
         sodipodi:role="line"
         id="tspan84">Oog hellingen weg alluviale mee bestreken zij ontruk-</tspan><tspan
         x="0 4.6079998 11.936 19.872 22.608 25.808001 34.896 42.383999 45.695999 53.023998 60.959999 64.160004 72.096001 79.584 86.816002 90.015999 100.688 108.016 111.328 118.4 125.728 128.92799 132.24001 135.29601 143.03999 150.976 155.728 158.92799 166.16 173.48801 176.8 184.73599 192.032 195.23199 207.71201 215.03999 222.368 225.104 228.304 236.944 241.82401 252.496 259.82401 267.056 274.384 282.32001 285.51999 293.26401 300.272 305.02399"
         y="19.200001"
         sodipodi:role="line"
         id="tspan86">ten. Holen nog welke liput geluk mee. Afwegen dat </tspan><tspan
         x="0 7.072 14.56 22.048 29.792 42.271999 49.279999 57.216 60.416 65.167999 68.223999 76.160004 88.639999 91.695999 94.751999 102.688 105.888 112.048 116.656 123.984 131.312 139.248 146.576 154.51199 157.71201 170.192 177.52 185.45599 188.192 191.392 200.35201 211.024 218.35201 225.67999 233.29601 239.71201 242.76801 250.09599 257.168 264.496 267.69601 275.63199 282.95999 287.71201 290.91199 297.20001 304.68799 312.17599"
         y="38.400002"
         sodipodi:role="line"
         id="tspan88">koopman tinmijn steenen men. Dweepzieke het zoo </tspan></text>
    <text
       xml:space="preserve"
       transform="matrix(1,0,0,-1,385.874,231.3018)"
       style="font-variant:normal;font-weight:normal;font-stretch:normal;font-size:12px;font-family:'Titillium Web';-inkscape-font-specification:TitilliumWeb-Regular;writing-mode:lr-tb;fill:#231f20;fill-opacity:1;fill-rule:nonzero;stroke:none"
       id="text94"><tspan
         x="0 6.7199998 13.44 19.7292"
         y="0"
         sodipodi:role="line"
         id="tspan92">16pt</tspan></text>
    <text
       xml:space="preserve"
       transform="matrix(1,0,0,-1,461.6162,444.9165)"
       style="font-variant:normal;font-weight:normal;font-stretch:normal;font-size:11px;font-family:'Titillium Web';-inkscape-font-specification:TitilliumWeb-Regular;writing-mode:lr-tb;fill:#231f20;fill-opacity:1;fill-rule:nonzero;stroke:none"
       id="text106"><tspan
         x="0 7.2600002 13.068 18.722 21.142 25.003 27.412001 29.820999 35.639999 41.195 47.102001 52.216999 54.637001 63.833 69.388 75.294998 77.714996 81.575996 87.384003 92.939003 98.593002 104.104 110.011 115.665 118.085 123.09 125.499 127.908 130.328 138.655 144.166 148.02699 150.44701 155.562 159.423 161.832 164.241 169.895 175.45 181.35699 183.77699 189.431 194.98599 204.18201 209.69299 215.20399 220.47301 224.334 226.71001 229.13 235.213 239.019 241.439 247.23599 249.77699 255.28799 261.19501 266.32101 271.87601 277.78299 280.203 286.10999 291.918 297.82501 303.64401 309.19901 312.8631 318.6821 321.10211 326.6131 332.4321"
         y="0"
         sodipodi:role="line"
         id="tspan96">Oog tijdens men toegang zij wat stijgen gemaakt. Er planken honderd ad </tspan><tspan
         x="0 5.8080001 11.572 16.577 18.986 23.782 29.656 33.516998 35.937 41.744999 47.542 53.449001 55.858002 61.412998 67.253998 75.328003 77.704002 80.124001 86.085999 91.927002 97.834 103.488 109.043 112.849 115.269 121.088 123.497 127.358 129.778 135.597 141.438 147.27901 150.9431 156.7621 162.31709 164.73711 170.2921 172.8331 178.1021 180.52209 186.42909 192.23711 198.0451 203.6991 209.2541 215.1611 217.5811 223.4001 228.95509 234.86211 239.9881 245.54311 251.4501 253.8261 256.24609 262.7691 268.61011 271.0191 276.92609 279.3461 285.25311 287.66211 290.07111 292.49109 296.35211 302.1601 307.71509 313.6221 316.04211 321.3331 323.7421 326.15109 329.79211"
         y="13.2"
         sodipodi:role="line"
         id="tspan98">opzicht opnieuw. Sunger dit duurde elk hoogen denken. Puin hij toen vijf </tspan><tspan
         x="0 5.5549998 11.11 17.017 22.132 24.552 30.107 35.661999 41.569 43.945 46.365002 53.140999 58.695999 63.811001 69.608002 75.119003 80.629997 84.435997 88.296997 90.717003 96.536003 102.091 105.897 108.317 113.971 119.526 124.641 128.502 130.911 135.707 141.58099 145.442 147.862 153.51601 159.01489 167.343 173.151 176.814 182.633 188.188 194.095 196.515 202.30099 207.856 213.675 217.371 222.838 228.0311 233.58611 239.4931 241.9131 247.7211 253.5181 259.3371 263.03311 268.84109 274.49509 280.05011 285.95709 288.37711 292.2381 297.74911 300.2901 304.0961 306.5051 308.91409 314.0401 319.59509 322.01511 325.8761 331.64011 335.5011"
         y="26.4"
         sodipodi:role="line"
         id="tspan100">eens een. Bespaart der gesticht geworden bedreven opdrogen talrijke tot </tspan><tspan
         x="0 5.9070001 11.429 15.29 17.666 20.086 27.466999 33.275002 38.929001 41.348999 46.145 48.554001 52.415001 57.925999 63.744999 69.300003 71.841003 74.261002 80.080002 85.888 91.794998 96.922096 102.4771 106.1742 111.7292 114.1492 119.9352 122.4762 124.8852 127.2942 132.48621 138.0412 143.9482 146.36819 151.3732 156.8842 159.4252 161.8452 167.6312 173.1862 179.0052 182.7023 188.5103 194.06531 199.7193 202.09531 204.5153 210.6203 216.1313 221.6423 225.4483 229.3093 235.1503 237.5593 243.2133 248.7683 254.67529 257.09531 262.28729 268.09531 273.90329 277.70929 280.25031 286.05829 291.8663 297.6633 300.0723 305.72629"
         y="39.599998"
         sodipodi:role="line"
         id="tspan102">het. Nog citadel donkere blijven zal bedroeg. Vaartuigen voorloopig </tspan><tspan
         x="0 9.1960001 11.605 17.424 23.243 28.798 31.339001 33.880001 36.289001 38.698002 44.605 47.025002 49.433998 55.341 57.761002 60.169998 65.439003 67.859001 73.667 79.463997 81.884003 86.999001 89.540001 91.948997 97.218002 103.004 108.515 114.422 119.548 125.103 131.00999 133.42999 139.216 144.771 147.312 152.823 158.73 164.384 168.19 170.599 173.008 178.27699 180.653 183.073 192.599 198.15401 200.69501 203.11501 208.08701 213.895 219.703 222.123 227.315 233.123 238.931 242.737 245.157 250.448 254.254 256.66299 259.07199 261.492 265.133 270.64401 274.45001 276.87 286.06601 291.621 297.52802 299.948 305.14001 310.69501 313.23599 318.79099 321.16699"
         y="52.799999"
         sodipodi:role="line"
         id="tspan104">middellijn in ik op slikbanken belangrijk. Wel zoo voor vrij far men vele. </tspan></text>
    <text
       xml:space="preserve"
       transform="matrix(1,0,0,-1,426.9775,419.3018)"
       style="font-variant:normal;font-weight:normal;font-stretch:normal;font-size:12px;font-family:'Titillium Web';-inkscape-font-specification:TitilliumWeb-Regular;writing-mode:lr-tb;fill:#231f20;fill-opacity:1;fill-rule:nonzero;stroke:none"
       id="text110"><tspan
         x="0 6.7199998 13.44 19.7292"
         y="0"
         sodipodi:role="line"
         id="tspan108">11pt</tspan></text>
    <text
       xml:space="preserve"
       transform="matrix(1,0,0,-1,461.6162,343.0957)"
       style="font-variant:normal;font-weight:normal;font-stretch:normal;font-size:10px;font-family:'Titillium Web';-inkscape-font-specification:TitilliumWeb-Regular;writing-mode:lr-tb;fill:#231f20;fill-opacity:1;fill-rule:nonzero;stroke:none"
       id="text122"><tspan
         x="0 6.5999999 11.88 17.02 19.219999 22.73 24.92 27.110001 32.400002 37.450001 42.82 47.470001 49.669998 58.029999 63.080002 68.449997 70.650002 74.160004 79.440002 84.489998 89.629997 94.639999 100.01 105.15 107.35 111.9 114.09 116.28 118.48 126.05 131.06 134.57001 136.77 141.42 144.92999 147.12 149.31 154.45 159.5 164.87 167.07001 172.21001 177.25999 185.62 190.63 195.64 200.42999 203.94 206.10001 208.3 213.83 217.28999 219.49001 224.75999 227.07001 232.08 237.45 242.11 247.16 252.53 254.73 260.10001 265.38 270.75 276.04001 281.09 284.42001 289.70999 291.91 296.92001 302.20999 304.41 309.69 314.92999 319.48001 321.67001 326.03 331.36899 334.879"
         y="0"
         sodipodi:role="line"
         id="tspan112">Oog tijdens men toegang zij wat stijgen gemaakt. Er planken honderd ad opzicht </tspan><tspan
         x="0 5.2800002 10.55 15.92 18.110001 23.16 28.469999 35.811001 37.971001 40.171001 45.591 50.901001 56.271 61.410999 66.460999 69.920998 72.121002 77.411003 79.600998 83.111 85.310997 90.600998 95.911003 101.221 104.551 109.841 114.891 117.091 122.141 124.451 129.241 131.44099 136.811 142.091 147.371 152.511 157.561 162.931 165.131 170.42101 175.47099 180.841 185.50101 190.55099 195.92101 198.08099 200.28101 206.211 211.521 213.711 219.08099 221.28101 226.651 228.841 231.03101 233.231 236.741 242.021 247.071 252.44099 254.64101 259.45099 261.64099 263.83099 267.14099 269.341 274.39099 279.44101 284.811 289.461 291.66101 296.711 301.76099 307.13101 309.29099"
         y="12"
         sodipodi:role="line"
         id="tspan114">opnieuw. Sunger dit duurde elk hoogen denken. Puin hij toen vijf eens een. </tspan><tspan
         x="0 6.1599998 11.21 15.86 21.129999 26.139999 31.15 34.610001 38.119999 40.32 45.610001 50.66 54.119999 56.32 61.459999 66.510002 71.160004 74.669998 76.860001 81.220001 86.559998 90.07 92.269997 97.410004 102.41 109.98 115.26 118.59 123.88 128.92999 134.3 136.5 141.75999 146.81 152.10001 155.46001 160.42999 165.14999 170.2 175.57001 177.77 183.05 188.32001 193.61 196.96899 202.24899 207.38901 212.439 217.80901 220.009 223.519 228.52901 230.839 234.299 236.489 238.679 243.339 248.38901 250.589 254.099 259.33899 262.849 265.04901 270.41901 275.439 278.94901 281.10901 283.30899 290.01901 295.29901 300.439 302.63901 306.99899 309.189 312.69901 317.70901 322.99899 328.04901 330.35901"
         y="24"
         sodipodi:role="line"
         id="tspan116">Bespaart der gesticht geworden bedreven opdrogen talrijke tot het. Nog citadel </tspan><tspan
         x="0 5.29 10.57 15.94 20.6 25.65 29.01 34.060001 36.259998 41.52 43.830002 46.02 48.209999 52.93 57.98 63.349998 65.550003 70.099998 75.110001 77.419998 79.620003 84.879997 89.93 95.220001 98.581001 103.861 108.911 114.051 116.211 118.411 123.96 128.97 133.98 137.44 140.95 146.25999 148.45 153.59 158.64 164.00999 166.21001 170.92999 176.21001 181.49001 184.95 187.25999 192.53999 197.82001 203.09 205.28 210.42 212.62 220.98 223.17 228.46001 233.75 238.8 241.11 243.42 245.61 247.8 253.17 255.37 257.56 262.92999 265.13 267.32001 272.10999 274.31 279.59 284.85999 287.06 291.70999 294.01999 296.20999 301 306.26001 311.26999 316.64001 321.30099 326.35101 331.72101"
         y="36"
         sodipodi:role="line"
         id="tspan118">donkere blijven zal bedroeg. Vaartuigen voorloopig middellijn in ik op slikbanken </tspan><tspan
         x="0 5.2600002 10.31 12.62 17.629999 23 28.139999 31.6 33.790001 35.98 40.77 42.93 45.130001 53.790001 58.84 61.150002 63.349998 67.869003 73.149002 78.429001 80.628998 85.349998 90.629997 95.910004 99.370003 101.57 106.38 109.84 112.03 114.22 116.42 119.73 124.74 128.2 130.39999 138.75999 143.81 149.17999 151.38 156.101 161.151 163.461 168.511 170.67101"
         y="48"
         sodipodi:role="line"
         id="tspan120">belangrijk. Wel zoo voor vrij far men vele. </tspan></text>
    <text
       xml:space="preserve"
       transform="matrix(1,0,0,-1,426.9775,319.8018)"
       style="font-variant:normal;font-weight:normal;font-stretch:normal;font-size:12px;font-family:'Titillium Web';-inkscape-font-specification:TitilliumWeb-Regular;writing-mode:lr-tb;fill:#231f20;fill-opacity:1;fill-rule:nonzero;stroke:none"
       id="text126"><tspan
         x="0 6.7199998 13.44 19.7292"
         y="0"
         sodipodi:role="line"
         id="tspan124">10pt</tspan></text>
    <text
       xml:space="preserve"
       transform="matrix(1,0,0,-1,461.6162,244.1855)"
       style="font-variant:normal;font-weight:normal;font-stretch:normal;font-size:9px;font-family:'Titillium Web';-inkscape-font-specification:TitilliumWeb-Regular;writing-mode:lr-tb;fill:#231f20;fill-opacity:1;fill-rule:nonzero;stroke:none"
       id="text138"><tspan
         x="0 5.9400001 10.692 15.318 17.298 20.457001 22.427999 24.399 29.16 33.705002 38.537998 42.723 44.702999 52.227001 56.771999 61.605 63.584999 66.744003 71.496002 76.041 80.667 85.176003 90.009003 94.635002 96.614998 100.71 102.681 104.652 106.632 113.445 117.954 121.113 123.093 127.278 130.437 132.408 134.379 139.005 143.55 148.383 150.36301 154.989 159.534 167.058 171.567 176.076 180.38699 183.54601 185.49001 187.47 192.44701 195.561 197.541 202.284 204.36301 208.87199 213.705 217.8999 222.4449 227.27789 229.2579 234.0909 238.8429 243.6759 248.4369 252.9819 255.9789 260.7399 262.71991 267.22891 271.9899 273.96991 278.72189 283.4379 287.5329 289.50391 293.42789 298.23389 301.39291"
         y="0"
         sodipodi:role="line"
         id="tspan128">Oog tijdens men toegang zij wat stijgen gemaakt. Er planken honderd ad opzicht </tspan><tspan
         x="0 4.7519999 9.4949999 14.328 16.299 20.844 25.622999 32.229 34.173 36.153 41.030998 45.810001 50.643002 55.269001 59.813999 62.928001 64.907997 69.668999 71.639999 74.799004 76.778999 81.540001 86.319 91.098 94.095001 98.856003 103.401 105.381 109.926 112.005 116.316 118.296 123.129 127.881 132.633 137.259 141.804 146.63699 148.617 153.37801 157.923 162.756 166.95 171.495 176.328 178.272 180.252 185.589 190.368 192.339 197.172 199.15199 203.985 205.95599 207.927 209.907 213.06599 217.81799 222.36301 227.196 229.17599 233.505 235.476 237.44701 240.42599 242.40601 246.951 251.496 256.32901 260.51401 262.49399 267.039 271.58401 276.41699 278.36099 280.341 285.88501 290.42999 294.61499 299.358 303.867 308.37601 311.48999 314.64899 316.629 321.39001 325.935 329.04901"
         y="10.8"
         sodipodi:role="line"
         id="tspan130">opnieuw. Sunger dit duurde elk hoogen denken. Puin hij toen vijf eens een. Bespaart der </tspan><tspan
         x="0 4.6259999 9.1709995 13.356 16.514999 18.486 22.41 27.216 30.375 32.355 36.980999 41.480999 48.293999 53.046001 56.042999 60.804001 65.348999 70.181999 72.162003 76.896004 81.441002 86.202003 89.225998 93.698997 97.946999 102.492 107.325 109.305 114.057 118.8 123.561 126.585 131.33701 135.963 140.508 145.341 147.321 150.48 154.989 157.06799 160.18201 162.153 164.12399 168.31889 172.86391 174.8439 178.0029 182.7189 185.8779 187.85789 192.6909 197.20889 200.3679 202.3119 204.2919 210.3309 215.0829 219.70889 221.6889 225.6129 227.58389 230.7429 235.25191 240.01289 244.55791 246.6369 248.6169 253.3779 258.12991 262.96289 267.15689 271.7019 274.72501 279.26999 281.25 285.98401 288.06299 290.034 292.005 296.25391 300.79889 305.6319 307.61191 311.70691 316.21591 318.29489"
         y="21.6"
         sodipodi:role="line"
         id="tspan132">gesticht geworden bedreven opdrogen talrijke tot het. Nog citadel donkere blijven zal </tspan><tspan
         x="0 4.7340002 9.2790003 14.04 17.063999 21.816 26.361 30.987 32.931 34.910999 39.905998 44.415001 48.924 52.037998 55.196999 59.976002 61.946999 66.572998 71.117996 75.950996 77.931 82.179001 86.931 91.682999 94.796997 96.875999 101.628 106.38 111.123 113.094 117.72 119.7 127.224 129.19501 133.95599 138.717 143.26199 145.341 147.42 149.39101 151.362 156.19501 158.175 160.146 164.979 166.959 168.92999 173.241 175.22099 179.97301 184.716 186.696 190.881 192.96001 194.931 199.242 203.976 208.485 213.31799 217.51199 222.05701 226.89 228.87 233.604 238.149 240.228 244.737 249.57001 254.196 257.31 259.28101 261.25201 265.56299 267.50699 269.487 277.28189 281.8269 283.90591 285.88589 289.95389 294.7059 299.45789 301.4379 305.68591 310.4379 315.18991 318.30389 320.28391 324.61292 327.7269 329.69791 331.66891"
         y="32.400002"
         sodipodi:role="line"
         id="tspan134">bedroeg. Vaartuigen voorloopig middellijn in ik op slikbanken belangrijk. Wel zoo voor vrij </tspan><tspan
         x="0 2.9790001 7.4879999 10.602 12.582 20.106001 24.650999 29.483999 31.464001 35.712002 40.257 42.335999 46.881001 48.825001"
         y="43.200001"
         sodipodi:role="line"
         id="tspan136">far men vele. </tspan></text>
    <text
       xml:space="preserve"
       transform="matrix(1,0,0,-1,426.9775,223.0361)"
       style="font-variant:normal;font-weight:normal;font-stretch:normal;font-size:12px;font-family:'Titillium Web';-inkscape-font-specification:TitilliumWeb-Regular;writing-mode:lr-tb;fill:#231f20;fill-opacity:1;fill-rule:nonzero;stroke:none"
       id="text142"><tspan
         x="0 6.7199998 13.008"
         y="0"
         sodipodi:role="line"
         id="tspan140">9pt</tspan></text>
  </g>
</svg>
